<?xml version="1.0" encoding="UTF-8"?>
<svg version="1.1" xmlns="http://www.w3.org/2000/svg" width="515" height="502">
<path d="M0 0 C28.40645178 23.1523373 44.29686009 52.67065892 48.65234375 89.00390625 C48.95376604 93.92115491 49.02292527 98.82952084 49.06640625 103.75512695 C49.08533947 105.18824085 49.10496864 106.6213457 49.12522888 108.05444145 C49.17723426 111.92952535 49.21686595 115.8046422 49.25343704 119.67989898 C49.27760311 122.14362906 49.30522725 124.60729726 49.33395386 127.07097816 C49.78879443 166.22960458 49.73473567 205.38855008 49.657547 244.54904938 C49.63312817 256.94962387 49.61045439 269.35019056 49.59892559 281.7507847 C49.59484339 285.87634746 49.58872063 290.0018827 49.57717896 294.12743187 C49.53708907 308.68417695 49.50491379 323.24575678 49.90625 337.7980957 C49.92702858 339.24057694 49.92702858 339.24057694 49.94822693 340.71219921 C50.14959774 346.27090574 50.9222139 349.61239051 54.65234375 354.00390625 C58.86242798 357.46553106 62.18302676 358.90960768 67.65234375 359.00390625 C73.87009273 357.7698492 77.06324191 355.11565735 80.65234375 350.00390625 C82.32255365 346.66348645 81.89230897 342.89924448 81.95776367 339.22143555 C81.97770449 338.26814425 81.9976453 337.31485294 82.01819038 336.33267403 C82.08397147 333.01874775 82.14035739 329.70474791 82.1953125 326.390625 C82.21621634 325.20444769 82.23712017 324.01827038 82.25865746 322.7961483 C82.69778339 297.19164763 82.75978263 271.58589513 82.82006311 245.97821665 C82.83085325 241.5215939 82.84302934 237.0649754 82.85524452 232.60835636 C82.87075401 226.93617107 82.88563026 221.26398416 82.90039062 215.59179688 C82.90335341 214.45683785 82.90631619 213.32187882 82.90936875 212.15252709 C82.94237715 199.32507256 82.96795744 186.49765995 82.97827148 173.67016602 C82.98668571 163.30836059 83.00924907 152.94668774 83.04762715 142.58494872 C83.06717425 137.1540963 83.07986217 131.72344085 83.07479286 126.29255104 C83.07010396 121.21509331 83.08417967 116.13801419 83.11180496 111.06063271 C83.11862944 109.21981551 83.11893988 107.37895839 83.11160469 105.53814316 C82.99639258 73.34178541 92.69701193 42.72613306 113.65234375 18.00390625 C114.07741211 17.49520996 114.50248047 16.98651367 114.94042969 16.46240234 C131.47567968 -3.16465323 153.95555047 -16.47069371 178.40234375 -23.80859375 C179.05058105 -24.00356445 179.69881836 -24.19853516 180.36669922 -24.39941406 C203.40784528 -30.9169146 229.89493854 -31.12129705 251.20629883 -19.40771484 C270.32065484 -8.17234567 283.18467536 9.29797163 288.9609375 30.58984375 C290.66796089 39.01887449 290.79804391 47.30821997 290.79418945 55.87646484 C290.79952281 57.81269803 290.80486214 59.7489312 290.81042612 61.68516374 C290.81559519 63.75008456 290.8185275 65.81499909 290.82100868 67.87992477 C290.82696613 72.20194154 290.84354978 76.52387803 290.86235046 80.84585571 C290.86868632 82.33120532 290.87501197 83.81655498 290.88132763 85.30190468 C290.88449344 86.04532844 290.88765925 86.7887522 290.890921 87.55470395 C290.93284728 97.60286167 290.96597096 107.65097926 290.97827148 117.69921875 C290.98667767 124.49679656 291.00925592 131.2941721 291.04762715 138.0916487 C291.06728943 141.67961294 291.07982511 145.26727557 291.07479286 148.85529709 C291.06924157 152.86133044 291.09466142 156.86661664 291.12231445 160.87255859 C291.11571304 162.0438179 291.10911163 163.21507721 291.10231018 164.42182922 C291.21765082 174.63855969 293.37144298 183.74247667 300.609375 191.2890625 C306.44862573 196.19046034 313.40410073 198.47312712 320.71875 200.23046875 C321.35683594 200.48570312 321.99492188 200.7409375 322.65234375 201.00390625 C324.69781783 207.14032849 323.96002075 214.28581977 324.00244141 220.72802734 C324.01904411 222.57874081 324.04639063 224.42938905 324.08447266 226.27978516 C324.13909295 228.94858017 324.16108619 231.61587856 324.17578125 234.28515625 C324.19845062 235.11333862 324.22112 235.941521 324.24447632 236.7947998 C324.23583984 239.13085938 324.23583984 239.13085938 323.65234375 243.00390625 C320.55225206 245.59833641 317.15796039 246.63014451 313.33984375 247.87890625 C304.54474335 251.04703381 299.61752378 254.07557669 294.87890625 262.30859375 C291.50320766 269.72653015 291.3584029 276.35402781 291.36523438 284.41821289 C291.35840134 285.65495758 291.3515683 286.89170227 291.3445282 288.16592407 C291.33096172 290.8461602 291.32090414 293.52613623 291.31681824 296.20637703 C291.31006451 300.45768165 291.28825999 304.7088302 291.26428223 308.96006775 C291.21541957 317.99547713 291.18308037 327.03091981 291.15234375 336.06640625 C291.11916864 345.79969204 291.08294116 355.53291632 291.02821302 365.26610845 C291.00508405 369.47796898 290.99117877 373.68972152 290.98471832 377.9016391 C290.97729517 381.16240947 290.95729178 384.42311043 290.93945312 387.68383789 C290.94043503 388.82875198 290.94141693 389.97366608 290.94242859 391.15327454 C290.76165286 415.07024467 284.15114934 435.87251752 267.4140625 453.33984375 C254.48977119 465.73531791 237.09741177 473.73383208 219.08984375 474.25390625 C215.65234375 474.00390625 215.65234375 474.00390625 213.65234375 472.00390625 C213.47680956 468.91865686 213.42111578 465.92426423 213.45703125 462.83984375 C213.46127609 461.47903183 213.46127609 461.47903183 213.46560669 460.09072876 C213.47682222 457.18665502 213.50192912 454.28288713 213.52734375 451.37890625 C213.53737178 449.41276486 213.54649794 447.44661865 213.5546875 445.48046875 C213.57676603 440.65482966 213.6113051 435.82941985 213.65234375 431.00390625 C217.62692204 429.29062565 221.59589897 427.63672947 225.65234375 426.12890625 C233.63205552 422.90796037 238.97342095 418.96801628 242.65234375 411.00390625 C245.00838272 404.55562613 244.94523475 398.42111462 244.93945312 391.60546875 C244.94628616 390.37033035 244.9531192 389.13519196 244.9601593 387.86262512 C244.97372612 385.18566507 244.98378353 382.50896546 244.98786926 379.83200073 C244.99462438 375.58462203 245.0164311 371.33739947 245.04040527 367.09008789 C245.08926898 358.06139749 245.12159948 349.03267374 245.15234375 340.00390625 C245.18552523 330.28114999 245.22178739 320.55845526 245.27647448 310.83579254 C245.29582893 307.31257632 245.31117225 303.78944125 245.31681824 300.26617432 C245.36498268 271.2586112 246.97953773 247.02208791 266.65234375 224.00390625 C265.43708937 220.62504478 264.53813722 218.88154211 262.02734375 216.19140625 C248.25389694 200.6287617 245.43225693 178.90285435 245.58642578 158.98339844 C245.59109863 157.82424423 245.59577148 156.66509003 245.60058594 155.47080994 C245.6110367 152.96913441 245.62368178 150.46746727 245.63830948 147.96581268 C245.66046311 143.99579152 245.67474714 140.02578797 245.68600464 136.0557251 C245.71923976 124.77292343 245.76086258 113.49019773 245.82373047 102.20751953 C245.85845215 95.96083305 245.8821303 89.71420226 245.8939389 83.4674294 C245.90065186 80.17389063 245.91464409 76.8806431 245.93896866 73.58718109 C246.76698743 47.58003117 246.76698743 47.58003117 235.09375 25.265625 C229.04064511 19.41574186 221.22268062 16.82396715 212.90234375 16.56640625 C189.0367776 17.49142819 167.14029581 27.61291359 150.65234375 44.69921875 C136.07879919 61.49295174 128.48077483 81.26217775 128.52104187 103.45677185 C128.51892616 104.49685318 128.51681044 105.5369345 128.51463062 106.60853344 C128.50864814 110.08725885 128.50962953 113.56594781 128.51049805 117.04467773 C128.50746531 119.541886 128.50394353 122.03909371 128.49996948 124.53630066 C128.49208762 129.91257774 128.48691781 135.2888476 128.48367882 140.66512871 C128.4781651 149.17635451 128.46124907 157.68754061 128.44233704 166.19874573 C128.43598073 169.11534398 128.42967218 172.03194234 128.42335987 174.94854069 C128.42177611 175.67740754 128.42019235 176.4062744 128.41856059 177.15722812 C128.400637 185.44750796 128.3844057 193.73779059 128.36938477 202.02807617 C128.36800889 202.78551808 128.36663302 203.54295998 128.36521546 204.32335467 C128.34331738 216.57909936 128.33253637 228.83483373 128.32501402 241.09059452 C128.31692013 253.69735776 128.29355581 266.30403313 128.25706035 278.91074616 C128.23513097 286.67226473 128.22534119 294.43360214 128.23156068 302.19515008 C128.23513453 308.15801795 128.21775053 314.12064292 128.19288254 320.08346748 C128.18599975 322.51654224 128.18581254 324.94964732 128.19308281 327.38272095 C128.25060246 348.80831187 126.56333386 368.52365367 110.921875 384.76171875 C110.17292969 385.50164062 109.42398437 386.2415625 108.65234375 387.00390625 C108.03746094 387.64070313 107.42257812 388.2775 106.7890625 388.93359375 C95.21377988 400.08750634 79.54057847 404.52298019 63.85083008 404.42602539 C46.97249133 403.91678676 33.47573341 396.78795018 21.65234375 385.00390625 C20.92917969 384.30394531 20.20601562 383.60398437 19.4609375 382.8828125 C3.98227224 366.87546418 4.21033581 346.07884227 4.26757812 325.26611328 C4.26346799 322.7663956 4.2580045 320.26667983 4.251297 317.76696777 C4.23961078 312.40385631 4.23673677 307.04085189 4.24165344 301.67773819 C4.24849719 293.90747877 4.23588101 286.13733953 4.21814626 278.36710165 C4.18956078 265.73546237 4.17200141 253.10383614 4.16357422 240.47216797 C4.16306704 239.71785676 4.16255986 238.96354556 4.16203731 238.18637644 C4.15851106 232.83388654 4.15538158 227.48139644 4.15234375 222.12890625 C4.14887492 216.01806621 4.14522535 209.90722636 4.14111328 203.79638672 C4.14061067 203.0436123 4.14010805 202.29083789 4.1395902 201.51525213 C4.13082348 188.92979509 4.1103429 176.34438277 4.08163118 163.75895584 C4.06452796 156.01547533 4.05783166 148.27212187 4.06493723 140.528625 C4.06963909 134.5862073 4.05910575 128.64387725 4.0431881 122.70147705 C4.0392044 120.27603317 4.04027783 117.85057451 4.04696083 115.42513657 C4.1165717 88.04515441 -0.6226613 65.11384031 -19.34765625 44.00390625 C-19.96253906 43.29363281 -20.57742187 42.58335938 -21.2109375 41.8515625 C-35.31816184 26.59642697 -56.4948819 18.7660733 -76.76171875 16.765625 C-86.38729998 16.44250478 -96.23401443 19.05218515 -103.69921875 25.3046875 C-111.20788506 33.04466344 -112.63321265 41.73987142 -112.76171875 52.1171875 C-112.79063202 53.63245277 -112.79063202 53.63245277 -112.82012939 55.17832947 C-112.88087533 58.5576003 -112.92691089 61.9369015 -112.97265625 65.31640625 C-113.01293944 67.71517338 -113.05347311 70.11393632 -113.09423828 72.51269531 C-113.30872989 86.32441055 -113.36671169 100.1317298 -113.31076431 113.94489098 C-113.30078603 116.43630584 -113.29241795 118.92772182 -113.28439331 121.41914368 C-113.25184856 131.24870771 -113.25184856 131.24870771 -113.17901611 141.07803345 C-112.90320069 169.95184176 -112.75730003 197.17336487 -133.22265625 219.8984375 C-134.65382625 222.00988832 -134.65382625 222.00988832 -133.69921875 224.58984375 C-132.34904467 227.22628769 -132.34904467 227.22628769 -129.72265625 229.81640625 C-115.70762726 245.65201499 -113.20816575 267.62363505 -113.18994141 287.83813477 C-113.18486069 289.083349 -113.17977997 290.32856323 -113.17454529 291.61151123 C-113.16389321 294.29981932 -113.15487806 296.98807754 -113.14842606 299.67639351 C-113.1376509 303.93493276 -113.11738463 308.19339526 -113.0953064 312.45188904 C-113.03369012 324.55439758 -112.97936043 336.65689856 -112.94628906 348.75952148 C-112.92790247 355.45927795 -112.89892607 362.15890252 -112.85828435 368.85856193 C-112.83730153 372.39497937 -112.82176935 375.93123136 -112.81947708 379.46771431 C-112.81691694 383.41163839 -112.79138997 387.35523766 -112.76416016 391.29907227 C-112.76716629 392.4572496 -112.77017242 393.61542694 -112.77326965 394.80870056 C-112.67786523 404.1259406 -111.19274693 413.15881557 -104.34765625 420.00390625 C-98.36466105 424.57913787 -91.88093999 427.07984479 -84.71875 429.2421875 C-82.34765625 430.00390625 -82.34765625 430.00390625 -81.34765625 431.00390625 C-81.24648705 434.0947209 -81.20797067 437.1627318 -81.21484375 440.25390625 C-81.21388702 441.18235352 -81.2129303 442.11080078 -81.21194458 443.06738281 C-81.2112627 445.0345059 -81.21311753 447.00163121 -81.21728516 448.96875 C-81.2226333 451.99093651 -81.21734043 455.0129744 -81.2109375 458.03515625 C-81.21159828 459.94140658 -81.21287944 461.84765682 -81.21484375 463.75390625 C-81.21281952 464.66430664 -81.21079529 465.57470703 -81.20870972 466.51269531 C-81.23270656 472.88895656 -81.23270656 472.88895656 -82.34765625 474.00390625 C-97.9826487 476.1665696 -114.92626731 468.52369535 -127.48046875 459.8359375 C-143.06883604 447.56932536 -153.7855206 431.67205096 -157.34765625 412.00390625 C-158.82311412 398.87050969 -158.49799512 385.5816861 -158.51632118 372.38892174 C-158.52232108 368.25572573 -158.53893835 364.12261176 -158.55766296 359.98945618 C-158.56399682 358.56487182 -158.57032248 357.14028744 -158.57664013 355.71570301 C-158.57980594 355.00328532 -158.58297175 354.29086763 -158.5862335 353.55686152 C-158.62807108 343.96036575 -158.66132504 334.36391522 -158.67358398 324.76733398 C-158.68198644 318.25574643 -158.70453934 311.74437027 -158.74293965 305.23288852 C-158.76259158 301.80097864 -158.77514057 298.36938387 -158.77010536 294.93741417 C-158.76774752 291.113796 -158.78995222 287.29103182 -158.81762695 283.4675293 C-158.81102554 282.34885468 -158.80442413 281.23018005 -158.79762268 280.0776062 C-158.90785523 270.77413078 -161.25730572 262.24648526 -167.34765625 255.00390625 C-173.13559423 249.99608165 -179.27856783 247.84265521 -186.625 245.9609375 C-189.34765625 245.00390625 -189.34765625 245.00390625 -191.34765625 242.00390625 C-191.56789482 239.14950338 -191.67567958 236.39505784 -191.68359375 233.5390625 C-191.69025055 232.70934433 -191.69690735 231.87962616 -191.70376587 231.02476501 C-191.71388736 229.27052018 -191.71858304 227.51623689 -191.71826172 225.76196289 C-191.72263475 223.07959519 -191.75895709 220.3988734 -191.796875 217.71679688 C-191.80274334 216.01172437 -191.80671262 214.30664406 -191.80859375 212.6015625 C-191.82296478 211.80041519 -191.83733582 210.99926788 -191.85214233 210.17384338 C-191.82244526 206.55029044 -191.68676001 204.45051144 -189.46240234 201.52099609 C-187.14579711 199.85909527 -185.36590701 199.20557243 -182.59765625 198.56640625 C-174.38616076 196.30824499 -168.0637262 192.16996935 -163.34765625 185.00390625 C-159.53126363 177.0935299 -158.77142224 169.83401951 -158.83349609 161.15136719 C-158.826371 159.91564468 -158.81924591 158.67992218 -158.81190491 157.40675354 C-158.79929329 154.74044628 -158.79371595 152.07529372 -158.80067062 149.40908051 C-158.81156495 145.17810881 -158.79394694 140.94752962 -158.77285767 136.71661377 C-158.74270514 130.0128805 -158.73091416 123.30926541 -158.72728121 116.60546994 C-158.72062585 104.62795567 -158.69121915 92.65052561 -158.64218485 80.6731112 C-158.62586413 76.48275635 -158.62050566 72.29257174 -158.6235199 68.10218871 C-158.63178563 40.1434545 -157.0554075 15.69518048 -136.671875 -5.7265625 C-98.54412448 -42.95718948 -38.24557867 -30.34640315 0 0 Z " fill="#29ABE2" transform="translate(191.34765625,27.99609375)"/>
<path d="M0 0 C22.85426717 0 39.70544316 7.23823521 56 23 C72.22938436 39.8895627 77.15210704 61.06219239 77.1418457 83.87255859 C77.14717906 85.80879178 77.15251839 87.74502495 77.15808237 89.68125749 C77.16325144 91.74617831 77.16618375 93.81109284 77.16866493 95.87601852 C77.17462238 100.19803529 77.19120603 104.51997178 77.21000671 108.84194946 C77.21634257 110.32729907 77.22266822 111.81264873 77.22898388 113.29799843 C77.23214969 114.04142219 77.2353155 114.78484595 77.23857725 115.5507977 C77.28050353 125.59895542 77.31362721 135.64707301 77.32592773 145.6953125 C77.33433392 152.49289031 77.35691217 159.29026585 77.3952834 166.08774245 C77.41494568 169.67570669 77.42748136 173.26336932 77.42244911 176.85139084 C77.41689782 180.85742419 77.44231767 184.86271039 77.4699707 188.86865234 C77.46336929 190.03991165 77.45676788 191.21117096 77.44996643 192.41792297 C77.56530707 202.63465344 79.71909923 211.73857042 86.95703125 219.28515625 C92.79628198 224.18655409 99.75175698 226.46922087 107.06640625 228.2265625 C107.70449219 228.48179687 108.34257813 228.73703125 109 229 C111.04547408 235.13642224 110.307677 242.28191352 110.35009766 248.72412109 C110.36670036 250.57483456 110.39404688 252.4254828 110.43212891 254.27587891 C110.4867492 256.94467392 110.50874244 259.61197231 110.5234375 262.28125 C110.55744156 263.52352356 110.55744156 263.52352356 110.59213257 264.79089355 C110.58349609 267.12695312 110.58349609 267.12695312 110 271 C106.89990831 273.59443016 103.50561664 274.62623826 99.6875 275.875 C90.8923996 279.04312756 85.96518003 282.07167044 81.2265625 290.3046875 C77.85086391 297.7226239 77.70605915 304.35012156 77.71289062 312.41430664 C77.70605759 313.65105133 77.69922455 314.88779602 77.69218445 316.16201782 C77.67861797 318.84225395 77.66856039 321.52222998 77.66447449 324.20247078 C77.65772076 328.4537754 77.63591624 332.70492395 77.61193848 336.9561615 C77.56307582 345.99157088 77.53073662 355.02701356 77.5 364.0625 C77.46682489 373.79578579 77.43059741 383.52901007 77.37586927 393.2622022 C77.3527403 397.47406273 77.33883502 401.68581527 77.33237457 405.89773285 C77.32495142 409.15850322 77.30494803 412.41920418 77.28710938 415.67993164 C77.28809128 416.82484573 77.28907318 417.96975983 77.29008484 419.14936829 C77.10930911 443.06633842 70.49880559 463.86861127 53.76171875 481.3359375 C40.83742744 493.73141166 23.44506802 501.72992583 5.4375 502.25 C2 502 2 502 0 500 C-0.17553419 496.91475061 -0.23122797 493.92035798 -0.1953125 490.8359375 C-0.1924826 489.92872955 -0.18965271 489.02152161 -0.18673706 488.08682251 C-0.17552153 485.18274877 -0.15041463 482.27898088 -0.125 479.375 C-0.11497197 477.40885861 -0.10584581 475.4427124 -0.09765625 473.4765625 C-0.07557772 468.65092341 -0.04103865 463.8255136 0 459 C3.97457829 457.2867194 7.94355522 455.63282322 12 454.125 C19.97971177 450.90405412 25.3210772 446.96411003 29 439 C31.35603897 432.55171988 31.292891 426.41720837 31.28710938 419.6015625 C31.29735893 417.7488549 31.29735893 417.7488549 31.30781555 415.85871887 C31.32138237 413.18175882 31.33143978 410.50505921 31.33552551 407.82809448 C31.34228063 403.58071578 31.36408735 399.33349322 31.38806152 395.08618164 C31.43692523 386.05749124 31.46925573 377.02876749 31.5 368 C31.53318148 358.27724374 31.56944364 348.55454901 31.62413073 338.83188629 C31.64348518 335.30867007 31.6588285 331.785535 31.66447449 328.26226807 C31.71263893 299.25470495 33.32719398 275.01818166 53 252 C51.78474562 248.62113853 50.88579347 246.87763586 48.375 244.1875 C34.60155319 228.62485545 31.77991318 206.8989481 31.93408203 186.97949219 C31.93875488 185.82033798 31.94342773 184.66118378 31.94824219 183.46690369 C31.95869295 180.96522816 31.97133803 178.46356102 31.98596573 175.96190643 C32.00811936 171.99188527 32.02240339 168.02188172 32.03366089 164.05181885 C32.06689601 152.76901718 32.10851883 141.48629148 32.17138672 130.20361328 C32.2061084 123.9569268 32.22978655 117.71029601 32.24159515 111.46352315 C32.24830811 108.16998438 32.26230034 104.87673685 32.28662491 101.58327484 C33.11464368 75.57612492 33.11464368 75.57612492 21.44140625 53.26171875 C15.54336302 47.56169136 7.86203498 45.572407 0 44 C0 29.48 0 14.96 0 0 Z " fill="#0071BC" transform="translate(405,0)"/>
<path d="M0 0 C0 14.52 0 29.04 0 44 C-7.92 46.475 -7.92 46.475 -16 49 C-23.73030312 53.63818187 -28.13284125 59.15916639 -30.56344604 67.89952087 C-31.40219417 71.93515704 -31.36318486 76.00473398 -31.4140625 80.11328125 C-31.44297577 81.62854652 -31.44297577 81.62854652 -31.47247314 83.17442322 C-31.53321908 86.55369405 -31.57925464 89.93299525 -31.625 93.3125 C-31.66528319 95.71126713 -31.70581686 98.11003007 -31.74658203 100.50878906 C-31.96107364 114.3205043 -32.01905544 128.12782355 -31.96310806 141.94098473 C-31.95312978 144.43239959 -31.9447617 146.92381557 -31.93673706 149.41523743 C-31.90419231 159.24480146 -31.90419231 159.24480146 -31.83135986 169.0741272 C-31.55554444 197.94793551 -31.40964378 225.16945862 -51.875 247.89453125 C-53.30617 250.00598207 -53.30617 250.00598207 -52.3515625 252.5859375 C-51.00138842 255.22238144 -51.00138842 255.22238144 -48.375 257.8125 C-34.35997101 273.64810874 -31.8605095 295.6197288 -31.84228516 315.83422852 C-31.83720444 317.07944275 -31.83212372 318.32465698 -31.82688904 319.60760498 C-31.81623696 322.29591307 -31.80722181 324.98417129 -31.80076981 327.67248726 C-31.78999465 331.93102651 -31.76972838 336.18948901 -31.74765015 340.44798279 C-31.68603387 352.55049133 -31.63170418 364.65299231 -31.59863281 376.75561523 C-31.58024622 383.4553717 -31.55126982 390.15499627 -31.5106281 396.85465568 C-31.48964528 400.39107312 -31.4741131 403.92732511 -31.47182083 407.46380806 C-31.46926069 411.40773214 -31.44373372 415.35133141 -31.41650391 419.29516602 C-31.41951004 420.45334335 -31.42251617 421.61152069 -31.4256134 422.80479431 C-31.33020898 432.12203435 -29.84509068 441.15490932 -23 448 C-17.0170048 452.57523162 -10.53328374 455.07593854 -3.37109375 457.23828125 C-1 458 -1 458 0 459 C0.1011692 462.09081465 0.13968558 465.15882555 0.1328125 468.25 C0.13376923 469.17844727 0.13472595 470.10689453 0.13571167 471.06347656 C0.13639355 473.03059965 0.13453872 474.99772496 0.13037109 476.96484375 C0.12502295 479.98703026 0.13031582 483.00906815 0.13671875 486.03125 C0.13605797 487.93750033 0.13477681 489.84375057 0.1328125 491.75 C0.13483673 492.66040039 0.13686096 493.57080078 0.13894653 494.50878906 C0.11494969 500.88505031 0.11494969 500.88505031 -1 502 C-16.63499245 504.16266335 -33.57861106 496.5197891 -46.1328125 487.83203125 C-61.72117979 475.56541911 -72.43786435 459.66814471 -76 440 C-77.47545787 426.86660344 -77.15033887 413.57777985 -77.16866493 400.38501549 C-77.17466483 396.25181948 -77.1912821 392.11870551 -77.21000671 387.98554993 C-77.21634057 386.56096557 -77.22266623 385.13638119 -77.22898388 383.71179676 C-77.23214969 382.99937907 -77.2353155 382.28696138 -77.23857725 381.55295527 C-77.28041483 371.9564595 -77.31366879 362.36000897 -77.32592773 352.76342773 C-77.33433019 346.25184018 -77.35688309 339.74046402 -77.3952834 333.22898227 C-77.41493533 329.79707239 -77.42748432 326.36547762 -77.42244911 322.93350792 C-77.42009127 319.10988975 -77.44229597 315.28712557 -77.4699707 311.46362305 C-77.46336929 310.34494843 -77.45676788 309.2262738 -77.44996643 308.07369995 C-77.56019898 298.77022453 -79.90964947 290.24257901 -86 283 C-91.78793798 277.9921754 -97.93091158 275.83874896 -105.27734375 273.95703125 C-108 273 -108 273 -110 270 C-110.22023857 267.14559713 -110.32802333 264.39115159 -110.3359375 261.53515625 C-110.3425943 260.70543808 -110.3492511 259.87571991 -110.35610962 259.02085876 C-110.36623111 257.26661393 -110.37092679 255.51233064 -110.37060547 253.75805664 C-110.3749785 251.07568894 -110.41130084 248.39496715 -110.44921875 245.71289062 C-110.45508709 244.00781812 -110.45905637 242.30273781 -110.4609375 240.59765625 C-110.47530853 239.79650894 -110.48967957 238.99536163 -110.50448608 238.16993713 C-110.47478901 234.54638419 -110.33910376 232.44660519 -108.11474609 229.51708984 C-105.79814086 227.85518902 -104.01825076 227.20166618 -101.25 226.5625 C-93.03850451 224.30433874 -86.71606995 220.1660631 -82 213 C-78.18360738 205.08962365 -77.42376599 197.83011326 -77.48583984 189.14746094 C-77.47871475 187.91173843 -77.47158966 186.67601593 -77.46424866 185.40284729 C-77.45163704 182.73654003 -77.4460597 180.07138747 -77.45301437 177.40517426 C-77.4639087 173.17420256 -77.44629069 168.94362337 -77.42520142 164.71270752 C-77.39504889 158.00897425 -77.38325791 151.30535916 -77.37962496 144.60156369 C-77.3729696 132.62404942 -77.3435629 120.64661936 -77.2945286 108.66920495 C-77.27820788 104.4788501 -77.27284941 100.28866549 -77.27586365 96.09828246 C-77.28412938 68.13954825 -75.70775125 43.69127423 -55.32421875 22.26953125 C-39.81517241 7.12540365 -21.58957269 0 0 0 Z " fill="#0071BC" transform="translate(110,0)"/>
</svg>
